<svg width="0" height="0" class="hidden">
  <symbol version="1.0" xmlns="http://www.w3.org/2000/svg" viewBox="0 0 512 512" id="next">
    <path d="M127.8 2c-9.5 5-13.1 17.4-8.1 27.5.8 1.6 51.9 53.3 113.6 114.7L345.5 256 233.3 367.7c-61.7 61.5-112.8 113.2-113.6 114.8-5.1 10.3-1.3 22.6 8.3 27.5 5 2.6 14.3 2.7 18.7.2 5.1-2.7 243.1-239.8 245.5-244.6 1.5-2.7 2.2-5.9 2.2-9.6 0-3.7-.7-6.9-2.2-9.6-2.5-4.8-240.5-241.9-245.5-244.6-4.5-2.4-14.1-2.3-18.9.2z"></path>
  </symbol>
  <symbol version="1.0" xmlns="http://www.w3.org/2000/svg" viewBox="0 0 512 512" id="prev">
    <path d="M365.5 1.4c-1.6.8-57.8 56.2-124.7 123.2C131.6 234 119.1 246.9 118.4 250.3c-1.1 6.3.1 13.3 2.9 17.4 1.5 2.1 56.3 57.4 121.9 122.9 97.3 97.2 120 119.4 123.2 120.4 5.7 1.8 14.7.9 19-2.1 7.3-4.9 10.5-16.3 7.1-24.7-1.1-2.6-34.4-36.6-113.8-116L166.5 256l112.2-112.3C340.3 82 391.6 30 392.5 28.1c2.6-5.1 1.7-14.7-1.7-19.9C386 1 373.7-2.3 365.5 1.4z"></path>
  </symbol>
  <symbol version="1.0" xmlns="http://www.w3.org/2000/svg" viewBox="0 0 512 512" id="circle">
    <path d="M224 1.5c-38.9 4.8-76.6 18.8-109.1 40.4-50.4 33.5-87.1 82.5-104.3 139.5-4.1 13.2-8.1 33.3-9.6 46.8-1.3 12.5-1.3 43.1 0 55.6 10.8 101.4 82.5 188 180.4 217.6 13.2 4.1 33.3 8.1 46.8 9.6 12.5 1.3 43.1 1.3 55.6 0 59.2-6.3 114.1-33.2 156.3-76.6 28.9-29.9 49.4-64.5 61.3-103.8 7.4-24.3 10.6-46.8 10.6-74.6 0-20.9-1-32.4-4.6-50.5-18.1-92-86.7-167.6-176.8-194.9-13.2-4.1-33.3-8.1-46.8-9.6-13.1-1.4-46.9-1.1-59.8.5z"></path>
  </symbol>
</svg>